<?xml version="1.0" encoding="utf-8"?>
<svg xmlns="http://www.w3.org/2000/svg">
  <symbol id="accountcircle" viewBox="0 0 16 16">
    <path d="M8 1.333A6.67 6.67 0 0 0 1.333 8 6.67 6.67 0 0 0 8 14.667 6.67 6.67 0 0 0 14.667 8 6.67 6.67 0 0 0 8 1.333ZM4.713 12.187C5 11.587 6.747 11 8 11c1.253 0 3.007.587 3.287 1.187A5.262 5.262 0 0 1 8 13.333c-1.24 0-2.38-.426-3.287-1.146Zm7.527-.967C11.287 10.06 8.973 9.667 8 9.667c-.973 0-3.287.393-4.24 1.553A5.3 5.3 0 0 1 2.667 8 5.34 5.34 0 0 1 8 2.667 5.34 5.34 0 0 1 13.333 8a5.3 5.3 0 0 1-1.093 3.22ZM8 4a2.327 2.327 0 0 0-2.333 2.333A2.327 2.327 0 0 0 8 8.667a2.327 2.327 0 0 0 2.333-2.334A2.327 2.327 0 0 0 8 4Zm0 3.333c-.553 0-1-.446-1-1 0-.553.447-1 1-1 .553 0 1 .447 1 1 0 .554-.447 1-1 1Z" />
  </symbol>
  <symbol id="add" viewBox="0 0 16 16">
    <path d="M16 9.143H9.143V16H6.857V9.143H0V6.857h6.857V0h2.286v6.857H16v2.286Z" />
  </symbol>
  <symbol id="arrowback" viewBox="0 0 16 16">
    <path d="M13.333 7.333H5.22l3.727-3.726L8 2.667 2.667 8 8 13.333l.94-.94-3.72-3.726h8.113V7.333Z" />
  </symbol>
  <symbol id="arrowbackios" viewBox="0 0 16 16">
    <path d="M11.673 2.58 10.487 1.4 3.893 8l6.6 6.6 1.18-1.18L6.253 8l5.42-5.42Z" />
  </symbol>
  <symbol id="arrowdownward" viewBox="0 0 16 16">
    <path d="m13.333 8-.94-.94-3.726 3.72V2.667H7.333v8.113l-3.72-3.727L2.667 8 8 13.333 13.333 8Z" />
  </symbol>
  <symbol id="arrowforward" viewBox="0 0 16 16">
    <path d="m8 2.667-.94.94 3.72 3.726H2.667v1.334h8.113l-3.72 3.726.94.94L13.333 8 8 2.667Z" />
  </symbol>
  <symbol id="arrowforwardios" viewBox="0 0 16 16">
    <path d="m4.327 13.42 1.18 1.18 6.6-6.6-6.6-6.6-1.18 1.18L9.747 8l-5.42 5.42Z" />
  </symbol>
  <symbol id="arrowupward" viewBox="0 0 16 16">
    <path d="m2.667 8 .94.94 3.726-3.72v8.113h1.334V5.22l3.72 3.727.946-.947L8 2.667 2.667 8Z" />
  </symbol>
  <symbol id="attachfile" viewBox="0 0 16 16">
    <path d="M11 4v7.667a2.666 2.666 0 1 1-5.333 0V3.333a1.667 1.667 0 0 1 3.333 0v7c0 .367-.3.667-.667.667a.669.669 0 0 1-.666-.667V4h-1v6.333a1.667 1.667 0 0 0 3.333 0v-7a2.666 2.666 0 1 0-5.333 0v8.334a3.665 3.665 0 0 0 3.666 3.666A3.665 3.665 0 0 0 12 11.667V4h-1Z" />
  </symbol>
  <symbol id="audiotrack" viewBox="0 0 16 16">
    <path d="M8 2v7.033a2.665 2.665 0 0 0-1.333-.366 2.666 2.666 0 1 0 0 5.333 2.666 2.666 0 0 0 2.666-2.667V4.667H12V2H8ZM6.667 12.667c-.734 0-1.334-.6-1.334-1.334 0-.733.6-1.333 1.334-1.333C7.4 10 8 10.6 8 11.333c0 .734-.6 1.334-1.333 1.334Z" />
  </symbol>
  <symbol id="bookmark" viewBox="0 0 16 16">
    <path d="M11.333 2H4.667c-.734 0-1.334.6-1.334 1.333V14L8 12l4.667 2V3.333c0-.733-.6-1.333-1.334-1.333Zm0 10L8 10.547 4.667 12V3.333h6.666V12Z" />
  </symbol>
  <symbol id="chatbuble" viewBox="0 0 15 15">
    <path d="M12.5 1.25h-10c-.688 0-1.25.563-1.25 1.25v11.25l2.5-2.5h8.75c.688 0 1.25-.563 1.25-1.25V2.5c0-.688-.563-1.25-1.25-1.25Zm0 8.75H3.75L2.5 11.25V2.5h10V10Z" />
  </symbol>
  <symbol id="close" viewBox="0 0 16 16">
    <path d="m12.667 4.273-.94-.94L8 7.06 4.273 3.333l-.94.94L7.06 8l-3.727 3.727.94.94L8 8.94l3.727 3.727.94-.94L8.94 8l3.727-3.727Z" />
  </symbol>
  <symbol id="create" viewBox="0 0 16 16">
    <path d="M2 11.5V14h2.5l7.373-7.373-2.5-2.5L2 11.5Zm1.947 1.167h-.614v-.614l6.04-6.04.614.614-6.04 6.04Zm9.86-8.914-1.56-1.56A.655.655 0 0 0 11.773 2a.656.656 0 0 0-.466.193l-1.22 1.22 2.5 2.5 1.22-1.22c.26-.26.26-.68 0-.94Z" />
  </symbol>
  <symbol id="delete" viewBox="0 0 16 16">
    <path d="M10.667 6v6.667H5.333V6h5.334Zm-1-4H6.333l-.666.667H3.333V4h9.334V2.667h-2.334L9.667 2ZM12 4.667H4v8C4 13.4 4.6 14 5.333 14h5.334C11.4 14 12 13.4 12 12.667v-8Z" />
  </symbol>
  <symbol id="done" viewBox="0 0 16 16">
    <path d="M6 10.8 3.2 8l-.933.933L6 12.667l8-8-.933-.934L6 10.8Z" />
  </symbol>
  <symbol id="doneall" viewBox="0 0 16 16">
    <path d="m12 4.667-.94-.94-4.227 4.226.94.94L12 4.667Zm2.827-.94L7.773 10.78 4.987 8l-.94.94 3.726 3.727 8-8-.946-.94ZM.273 8.94 4 12.667l.94-.94L1.22 8l-.947.94Z" />
  </symbol>
  <symbol id="email" viewBox="0 0 16 16">
    <path d="M14.667 4c0-.733-.6-1.333-1.334-1.333H2.667c-.734 0-1.334.6-1.334 1.333v8c0 .733.6 1.333 1.334 1.333h10.666c.734 0 1.334-.6 1.334-1.333V4Zm-1.334 0L8 7.333 2.667 4h10.666Zm0 8H2.667V5.333L8 8.667l5.333-3.334V12Z" />
  </symbol>
  <symbol id="filecopy" viewBox="0 0 16 16">
    <path d="M10.667.667h-8c-.734 0-1.334.6-1.334 1.333v9.333h1.334V2h8V.667ZM10 3.333H5.333c-.733 0-1.326.6-1.326 1.334L4 14c0 .733.593 1.333 1.327 1.333h7.34c.733 0 1.333-.6 1.333-1.333V7.333l-4-4ZM5.333 14V4.667h4V8h3.334v6H5.333Z" />
  </symbol>
  <symbol id="home" viewBox="0 0 16 16">
    <path d="m8 3.793 3.333 3V12H10V8H6v4H4.667V6.793l3.333-3ZM8 2 1.333 8h2v5.333h4v-4h1.334v4h4V8h2L8 2Z" />
  </symbol>
  <symbol id="info" viewBox="0 0 16 16">
    <path d="M7.333 4.667h1.334V6H7.333V4.667Zm0 2.666h1.334v4H7.333v-4Zm.667-6A6.67 6.67 0 0 0 1.333 8 6.67 6.67 0 0 0 8 14.667 6.67 6.67 0 0 0 14.667 8 6.67 6.67 0 0 0 8 1.333Zm0 12A5.34 5.34 0 0 1 2.667 8 5.34 5.34 0 0 1 8 2.667 5.34 5.34 0 0 1 13.333 8 5.34 5.34 0 0 1 8 13.333Z" />
  </symbol>
  <symbol id="insertdrivefile" viewBox="0 0 16 16">
    <path d="M9.333 1.333H4c-.733 0-1.327.6-1.327 1.334l-.006 10.666c0 .734.593 1.334 1.326 1.334H12c.733 0 1.333-.6 1.333-1.334v-8l-4-4ZM4 13.333V2.667h4.667V6H12v7.333H4Z" />
  </symbol>
  <symbol id="insertphoto" viewBox="0 0 16 16">
    <path d="M12.667 3.333v9.334H3.333V3.333h9.334Zm0-1.333H3.333C2.6 2 2 2.6 2 3.333v9.334C2 13.4 2.6 14 3.333 14h9.334C13.4 14 14 13.4 14 12.667V3.333C14 2.6 13.4 2 12.667 2Zm-3.24 5.907-2 2.58L6 8.76l-2 2.573h8L9.427 7.907Z" />
  </symbol>
  <symbol id="key" viewBox="0 0 16 16">
    <path d="M14.667 12.667h-4V10H8.88a4.663 4.663 0 0 1-4.213 2.667A4.672 4.672 0 0 1 0 8a4.672 4.672 0 0 1 4.667-4.667A4.67 4.67 0 0 1 8.88 6H16v4h-1.333v2.667ZM12 11.333h1.333V8.667h1.334V7.333H7.96l-.153-.446a3.337 3.337 0 0 0-3.14-2.22 3.335 3.335 0 0 0 0 6.666 3.337 3.337 0 0 0 3.14-2.22l.153-.446H12v2.666ZM4.667 10c-1.1 0-2-.9-2-2s.9-2 2-2 2 .9 2 2-.9 2-2 2Zm0-2.667C4.3 7.333 4 7.633 4 8c0 .367.3.667.667.667.366 0 .666-.3.666-.667 0-.367-.3-.667-.666-.667Z" />
  </symbol>
  <symbol id="keyboard" viewBox="0 0 16 16">
    <path d="M13.333 4.667v6.666H2.667V4.667h10.666Zm0-1.334H2.667c-.734 0-1.327.6-1.327 1.334l-.007 6.666c0 .734.6 1.334 1.334 1.334h10.666c.734 0 1.334-.6 1.334-1.334V4.667c0-.734-.6-1.334-1.334-1.334Zm-6 2h1.334v1.334H7.333V5.333Zm0 2h1.334v1.334H7.333V7.333Zm-2-2h1.334v1.334H5.333V5.333Zm0 2h1.334v1.334H5.333V7.333Zm-2 0h1.334v1.334H3.333V7.333Zm0-2h1.334v1.334H3.333V5.333Zm2 4h5.334v1.334H5.333V9.333Zm4-2h1.334v1.334H9.333V7.333Zm0-2h1.334v1.334H9.333V5.333Zm2 2h1.334v1.334h-1.334V7.333Zm0-2h1.334v1.334h-1.334V5.333Z" />
  </symbol>
  <symbol id="keyboardarrowleft" viewBox="0 0 16 16">
    <path d="M10.273 11.06 7.22 8l3.053-3.06-.94-.94-4 4 4 4 .94-.94Z" />
  </symbol>
  <symbol id="keyboardarrowright" viewBox="0 0 16 16">
    <path d="M5.727 11.06 8.78 8 5.727 4.94l.94-.94 4 4-4 4-.94-.94Z" />
  </symbol>
  <symbol id="lock" viewBox="0 0 16 16">
    <path d="M12 5.333h-.667V4a3.335 3.335 0 0 0-6.666 0v1.333H4c-.733 0-1.333.6-1.333 1.334v6.666c0 .734.6 1.334 1.333 1.334h8c.733 0 1.333-.6 1.333-1.334V6.667c0-.734-.6-1.334-1.333-1.334ZM6 4c0-1.107.893-2 2-2s2 .893 2 2v1.333H6V4Zm6 9.333H4V6.667h8v6.666Zm-4-2c.733 0 1.333-.6 1.333-1.333S8.733 8.667 8 8.667s-1.333.6-1.333 1.333.6 1.333 1.333 1.333Z" />
  </symbol>
  <symbol id="lockopen" viewBox="0 0 16 16">
    <path d="M12 5.333h-.667V4a3.335 3.335 0 0 0-6.666 0H6c0-1.107.893-2 2-2s2 .893 2 2v1.333H4c-.733 0-1.333.6-1.333 1.334v6.666c0 .734.6 1.334 1.333 1.334h8c.733 0 1.333-.6 1.333-1.334V6.667c0-.734-.6-1.334-1.333-1.334Zm0 8H4V6.667h8v6.666Zm-4-2c.733 0 1.333-.6 1.333-1.333S8.733 8.667 8 8.667s-1.333.6-1.333 1.333.6 1.333 1.333 1.333Z" />
  </symbol>
  <symbol id="login" viewBox="0 0 16 16">
    <path d="M7.333 4.667 6.4 5.6l1.733 1.733h-6.8v1.334h6.8L6.4 10.4l.933.933L10.667 8 7.333 4.667Zm6 8H8V14h5.333c.734 0 1.334-.6 1.334-1.333V3.333c0-.733-.6-1.333-1.334-1.333H8v1.333h5.333v9.334Z" />
  </symbol>
  <symbol id="logo" viewBox="0 0 16 16">
    <path d="M11.48 5.171h1.187v8.041h-1.188v-8.04ZM3.167 5.171h1.187v8.041H3.167v-8.04ZM10.767 2.667v1.318h-5.7V2.667h5.7Z" />
  </symbol>
  <symbol id="logout" viewBox="0 0 16 16">
    <path d="m11.333 4.667-.94.94 1.72 1.726h-6.78v1.334h6.78l-1.72 1.72.94.946L14.667 8l-3.334-3.333ZM2.667 3.333H8V2H2.667c-.734 0-1.334.6-1.334 1.333v9.334c0 .733.6 1.333 1.334 1.333H8v-1.333H2.667V3.333Z" />
  </symbol>
  <symbol id="menu" viewBox="0 0 16 16">
    <path d="M2 12h12v-1.333H2V12Zm0-3.333h12V7.333H2v1.334ZM2 4v1.333h12V4H2Z" />
  </symbol>
  <symbol id="morevert" viewBox="0 0 16 16">
    <path d="M8 5.333c.733 0 1.333-.6 1.333-1.333S8.733 2.667 8 2.667 6.667 3.267 6.667 4 7.267 5.333 8 5.333Zm0 1.334c-.733 0-1.333.6-1.333 1.333S7.267 9.333 8 9.333 9.333 8.733 9.333 8 8.733 6.667 8 6.667Zm0 4c-.733 0-1.333.6-1.333 1.333s.6 1.333 1.333 1.333 1.333-.6 1.333-1.333-.6-1.333-1.333-1.333Z" />
  </symbol>
  <symbol id="mylocation" viewBox="0 0 16 16">
    <path d="M8 5.333a2.666 2.666 0 1 0 0 5.334 2.666 2.666 0 1 0 0-5.334Zm5.96 2A5.996 5.996 0 0 0 8.667 2.04V.667H7.333V2.04A5.996 5.996 0 0 0 2.04 7.333H.667v1.334H2.04a5.996 5.996 0 0 0 5.293 5.293v1.373h1.334V13.96a5.996 5.996 0 0 0 5.293-5.293h1.373V7.333H13.96ZM8 12.667A4.663 4.663 0 0 1 3.333 8 4.663 4.663 0 0 1 8 3.333 4.663 4.663 0 0 1 12.667 8 4.663 4.663 0 0 1 8 12.667Z" />
  </symbol>
  <symbol id="personoutline" viewBox="0 0 16 16">
    <path d="M8 3.933a1.4 1.4 0 1 1 0 2.8 1.4 1.4 0 0 1 0-2.8Zm0 6c1.98 0 4.067.974 4.067 1.4v.734H3.933v-.734c0-.426 2.087-1.4 4.067-1.4Zm0-7.266A2.666 2.666 0 1 0 8 8a2.666 2.666 0 1 0 0-5.333Zm0 6c-1.78 0-5.333.893-5.333 2.666v2h10.666v-2C13.333 9.56 9.78 8.667 8 8.667Z" />
  </symbol>
  <symbol id="phoneenabled" viewBox="0 0 16 16">
    <path d="M11.64 3.333a8.208 8.208 0 0 1-.3 1.727l.8.8c.273-.8.447-1.647.507-2.527H11.64Zm-6.573 8.014c-.567.16-1.147.26-1.734.3v.993c.88-.06 1.727-.233 2.534-.5l-.8-.793ZM11 2h2.333c.367 0 .667.3.667.667C14 8.927 8.927 14 2.667 14A.669.669 0 0 1 2 13.333v-2.326c0-.367.3-.667.667-.667.826 0 1.633-.133 2.38-.38a.683.683 0 0 1 .68.16l1.466 1.467a10.1 10.1 0 0 0 4.394-4.394L10.12 5.727a.669.669 0 0 1-.167-.68c.247-.747.38-1.547.38-2.38 0-.367.3-.667.667-.667Z" />
  </symbol>
  <symbol id="photocamera" viewBox="0 0 16 15">
    <path d="m9.696 1.6 1.464 1.6h3.24v9.6H1.6V3.2h3.24l1.464-1.6h3.392ZM10.4 0H5.6L4.136 1.6H1.6C.72 1.6 0 2.32 0 3.2v9.6c0 .88.72 1.6 1.6 1.6h12.8c.88 0 1.6-.72 1.6-1.6V3.2c0-.88-.72-1.6-1.6-1.6h-2.536L10.4 0ZM8 5.6c1.32 0 2.4 1.08 2.4 2.4 0 1.32-1.08 2.4-2.4 2.4-1.32 0-2.4-1.08-2.4-2.4 0-1.32 1.08-2.4 2.4-2.4ZM8 4C5.792 4 4 5.792 4 8s1.792 4 4 4 4-1.792 4-4-1.792-4-4-4Z" />
  </symbol>
  <symbol id="search" viewBox="0 0 16 16">
    <path d="M10.333 9.333h-.526l-.187-.18a4.314 4.314 0 0 0 1.047-2.82 4.333 4.333 0 1 0-4.334 4.334c1.074 0 2.06-.394 2.82-1.047l.18.187v.526l3.334 3.327.993-.993-3.327-3.334Zm-4 0c-1.66 0-3-1.34-3-3s1.34-3 3-3 3 1.34 3 3-1.34 3-3 3Z" />
  </symbol>
  <symbol id="send" viewBox="0 0 16 16">
    <path d="M2.673 4.02 7.68 6.167 2.667 5.5l.006-1.48Zm5 5.813L2.667 11.98V10.5l5.006-.667ZM1.34 2l-.007 4.667 10 1.333-10 1.333L1.34 14l13.993-6L1.34 2Z" />
  </symbol>
  <symbol id="settings" viewBox="0 0 16 16">
    <path d="M12.953 8.653C12.98 8.44 13 8.227 13 8c0-.227-.02-.44-.047-.653l1.407-1.1c.127-.1.16-.28.08-.427l-1.333-2.307a.333.333 0 0 0-.407-.146l-1.66.666a4.872 4.872 0 0 0-1.127-.653L9.66 1.613a.325.325 0 0 0-.327-.28H6.667a.325.325 0 0 0-.327.28L6.087 3.38c-.407.167-.78.393-1.127.653L3.3 3.367a.377.377 0 0 0-.12-.02.33.33 0 0 0-.287.166L1.56 5.82a.329.329 0 0 0 .08.427l1.407 1.1A5.286 5.286 0 0 0 3 8c0 .22.02.44.047.653l-1.407 1.1c-.127.1-.16.28-.08.427l1.333 2.307a.333.333 0 0 0 .407.146l1.66-.666c.347.266.72.486 1.127.653l.253 1.767c.02.16.16.28.327.28h2.666c.167 0 .307-.12.327-.28l.253-1.767c.407-.167.78-.393 1.127-.653l1.66.666c.04.014.08.02.12.02a.33.33 0 0 0 .287-.166l1.333-2.307a.336.336 0 0 0-.08-.427l-1.407-1.1Zm-1.32-1.14c.027.207.034.347.034.487s-.014.287-.034.487l-.093.753.593.467.72.56-.466.806-.847-.34-.693-.28-.6.454c-.287.213-.56.373-.834.486l-.706.287-.107.753-.133.9h-.934l-.126-.9-.107-.753-.707-.287a3.782 3.782 0 0 1-.82-.473l-.606-.467-.707.287-.847.34-.466-.807.72-.56.593-.466-.093-.754A5.362 5.362 0 0 1 4.333 8c0-.133.014-.287.034-.487l.093-.753-.593-.467-.72-.56.466-.806.847.34.693.28.6-.454c.287-.213.56-.373.834-.486l.706-.287.107-.753.133-.9h.927l.127.9.106.753.707.287c.287.12.553.273.82.473l.607.467.706-.287.847-.34.467.807-.714.566-.593.467.093.753ZM8 5.333a2.666 2.666 0 1 0 0 5.334 2.666 2.666 0 1 0 0-5.334Zm0 4c-.733 0-1.333-.6-1.333-1.333S7.267 6.667 8 6.667s1.333.6 1.333 1.333S8.733 9.333 8 9.333Z" />
  </symbol>
  <symbol id="share" viewBox="0 0 16 16">
    <path d="M12 10.72c-.507 0-.96.2-1.307.513L5.94 8.467C5.973 8.313 6 8.16 6 8c0-.16-.027-.313-.06-.467l4.7-2.74A1.997 1.997 0 0 0 14 3.333c0-1.106-.893-2-2-2s-2 .894-2 2c0 .16.027.314.06.467l-4.7 2.74A1.997 1.997 0 0 0 2 8a1.997 1.997 0 0 0 3.36 1.46l4.747 2.773c-.034.14-.054.287-.054.434 0 1.073.874 1.946 1.947 1.946a1.949 1.949 0 0 0 1.947-1.946A1.949 1.949 0 0 0 12 10.72Zm0-8.053c.367 0 .667.3.667.666 0 .367-.3.667-.667.667a.669.669 0 0 1-.667-.667c0-.366.3-.666.667-.666Zm-8 6A.669.669 0 0 1 3.333 8c0-.367.3-.667.667-.667.367 0 .667.3.667.667 0 .367-.3.667-.667.667Zm8 4.68a.669.669 0 0 1-.667-.667c0-.367.3-.667.667-.667.367 0 .667.3.667.667 0 .367-.3.667-.667.667Z" />
  </symbol>
  <symbol id="starfill" viewBox="0 0 16 16">
    <path d="M8 11.513 12.12 14l-1.093-4.687 3.64-3.153-4.794-.407L8 1.333l-1.873 4.42-4.794.407 3.64 3.153L3.88 14 8 11.513Z" />
  </symbol>
  <symbol id="starhalf" viewBox="0 0 16 16">
    <path d="m14.667 6.16-4.794-.413L8 1.333l-1.873 4.42-4.794.407 3.64 3.153L3.88 14 8 11.513 12.12 14l-1.087-4.687 3.634-3.153ZM8 10.267v-6.2L9.14 6.76l2.92.253-2.213 1.92.666 2.854L8 10.267Z" />
  </symbol>
  <symbol id="staroutline" viewBox="0 0 16 16">
    <path d="m14.667 6.16-4.794-.413L8 1.333l-1.873 4.42-4.794.407 3.64 3.153L3.88 14 8 11.513 12.12 14l-1.087-4.687 3.634-3.153ZM8 10.267 5.493 11.78l.667-2.853-2.213-1.92 2.92-.254L8 4.067 9.14 6.76l2.92.253-2.213 1.92.666 2.854L8 10.267Z" />
  </symbol>
  <symbol id="visibility" viewBox="0 0 16 16">
    <path d="M8 4c2.527 0 4.78 1.42 5.88 3.667A6.514 6.514 0 0 1 8 11.333a6.513 6.513 0 0 1-5.88-3.666A6.513 6.513 0 0 1 8 4Zm0-1.333c-3.333 0-6.18 2.073-7.333 5 1.153 2.926 4 5 7.333 5s6.18-2.074 7.333-5c-1.153-2.927-4-5-7.333-5ZM8 6A1.667 1.667 0 1 1 8 9.335 1.667 1.667 0 0 1 8 6Zm0-1.333c-1.653 0-3 1.346-3 3 0 1.653 1.347 3 3 3s3-1.347 3-3c0-1.654-1.347-3-3-3Z" />
  </symbol>
  <symbol id="visibilityoff" viewBox="0 0 16 16">
    <path d="M8 4c2.527 0 4.78 1.42 5.88 3.667a6.432 6.432 0 0 1-1.607 2.08l.94.94a7.868 7.868 0 0 0 2.12-3.02c-1.153-2.927-4-5-7.333-5a7.9 7.9 0 0 0-2.427.38l1.1 1.1A6.74 6.74 0 0 1 8 4Zm-.713.76 1.38 1.38c.38.167.686.473.853.853l1.38 1.38c.053-.226.093-.466.093-.713A2.989 2.989 0 0 0 8 4.667c-.247 0-.48.033-.713.093ZM1.34 2.58l1.787 1.787a7.825 7.825 0 0 0-2.46 3.3c1.153 2.926 4 5 7.333 5a7.82 7.82 0 0 0 2.88-.547l2.28 2.28.94-.94L2.28 1.633l-.94.947Zm5 5 1.74 1.74c-.027.007-.053.013-.08.013-.92 0-1.667-.746-1.667-1.666 0-.034.007-.054.007-.087ZM4.073 5.313 5.24 6.48a3.005 3.005 0 0 0 3.94 3.947l.653.653c-.586.16-1.2.253-1.833.253a6.513 6.513 0 0 1-5.88-3.666 6.601 6.601 0 0 1 1.953-2.354Z" />
  </symbol>
</svg>
